<?xml version="1.0" standalone="no"?>
<!DOCTYPE svg PUBLIC "-//W3C//DTD SVG 20010904//EN"
 "http://www.w3.org/TR/2001/REC-SVG-20010904/DTD/svg10.dtd">
<svg version="1.0" xmlns="http://www.w3.org/2000/svg"
 width="2400.000000pt" height="2400.000000pt" viewBox="0 0 2400.000000 2400.000000"
 preserveAspectRatio="xMidYMid meet">
<metadata>
Created by potrace 1.14, written by Peter Selinger 2001-2017
</metadata>
<g transform="translate(0.000000,2400.000000) scale(0.100000,-0.100000)"
fill="#000000" stroke="none">
<path d="M22659 23026 c-2 -2 -125 -7 -274 -11 -148 -3 -286 -8 -305 -10 -19
-2 -89 -6 -155 -10 -66 -3 -133 -8 -150 -10 -16 -2 -66 -6 -110 -10 -74 -5
-215 -19 -310 -30 -70 -8 -409 -54 -440 -59 -16 -3 -75 -12 -130 -21 -125 -20
-147 -23 -216 -35 -30 -6 -87 -13 -125 -16 -38 -3 -80 -7 -94 -10 -14 -2 -63
-7 -110 -10 -107 -8 -76 -1 -285 -69 -99 -32 -184 -60 -190 -61 -5 -2 -59 -17
-120 -34 -60 -18 -211 -61 -335 -96 -359 -101 -596 -179 -1015 -334 -200 -73
-442 -156 -542 -185 -13 -3 -23 -14 -23 -23 0 -12 -45 -36 -158 -86 -225 -99
-666 -311 -797 -384 -11 -6 -109 -59 -218 -119 -275 -150 -280 -153 -477 -271
-543 -326 -1047 -675 -1540 -1066 -91 -72 -167 -133 -170 -136 -3 -3 -43 -37
-90 -75 -70 -57 -346 -293 -386 -330 -6 -5 -51 -46 -100 -90 -335 -303 -740
-704 -1039 -1030 -44 -48 -91 -99 -105 -114 -24 -26 -79 -88 -145 -162 -37
-42 -85 -97 -150 -174 -27 -32 -55 -63 -61 -69 -28 -30 -315 -381 -425 -522
-156 -198 -363 -474 -499 -664 -57 -80 -114 -159 -127 -177 l-23 -32 -67 41
c-168 102 -374 173 -573 196 -114 14 -532 5 -559 -12 -4 -3 -25 -7 -47 -10
-47 -7 -195 -44 -303 -75 -284 -83 -724 -305 -1066 -539 -199 -136 -482 -354
-631 -487 -6 -5 -40 -35 -75 -65 -259 -225 -614 -577 -888 -880 -57 -63 -120
-133 -140 -155 -43 -47 -255 -294 -326 -380 -28 -33 -52 -62 -55 -65 -5 -5
-292 -363 -352 -440 -192 -246 -499 -663 -728 -990 -250 -356 -552 -812 -543
-820 81 -72 217 -180 223 -178 7 2 178 154 410 364 39 36 263 230 360 314 36
30 83 71 105 91 39 35 258 218 346 290 89 73 195 161 239 198 106 88 490 388
675 527 644 483 1148 810 1592 1032 357 178 627 264 829 264 172 -1 267 -55
322 -182 l19 -45 -64 -120 c-35 -66 -98 -185 -139 -265 -42 -80 -78 -147 -80
-149 -2 -3 -19 10 -37 27 l-32 31 -12 -27 c-6 -15 -25 -63 -42 -107 -18 -44
-36 -89 -41 -100 -5 -11 -21 -49 -35 -85 -14 -36 -30 -74 -35 -85 -5 -11 -41
-101 -80 -200 -39 -99 -76 -189 -81 -200 -4 -11 -52 -128 -105 -260 -53 -132
-103 -256 -111 -275 -8 -19 -19 -44 -24 -55 -85 -198 -199 -482 -197 -491 2
-7 143 -154 313 -327 171 -173 332 -337 358 -365 l49 -50 -84 -27 c-368 -121
-774 -329 -1148 -588 -117 -81 -324 -230 -330 -237 -3 -3 -23 -19 -45 -35 -43
-32 -227 -176 -235 -185 -3 -3 -43 -37 -90 -75 -95 -78 -108 -90 -265 -230
-317 -285 -742 -717 -955 -971 -14 -16 -52 -61 -86 -99 -80 -92 -146 -177
-263 -339 -116 -163 -99 -139 -224 -321 -94 -137 -161 -235 -316 -460 -67 -98
-213 -306 -223 -320 -5 -5 -81 -109 -169 -230 -198 -269 -423 -557 -575 -735
-70 -82 -209 -241 -239 -274 -164 -181 -244 -265 -435 -456 -335 -335 -560
-537 -895 -801 -719 -569 -1447 -1000 -2340 -1386 -82 -36 -161 -69 -175 -74
-37 -13 114 1 225 21 28 5 66 12 85 14 177 27 461 96 710 171 162 50 507 171
593 208 17 8 97 42 177 75 182 76 238 101 485 222 161 78 503 257 575 300 83
50 193 110 200 110 6 0 10 5 10 10 0 6 5 10 10 10 35 0 824 502 1087 691 44
33 84 59 88 59 5 0 -16 -30 -84 -120 -10 -14 -37 -50 -60 -80 -22 -30 -44 -59
-48 -65 -5 -5 -53 -68 -108 -140 -148 -195 -322 -418 -480 -616 -33 -41 -73
-92 -90 -113 -16 -21 -38 -48 -49 -60 -10 -11 -55 -66 -99 -121 -79 -97 -431
-519 -452 -541 -5 -6 -32 -37 -60 -69 -27 -32 -102 -117 -165 -189 -63 -72
-123 -142 -135 -155 -11 -14 -27 -32 -35 -41 -8 -9 -71 -79 -140 -155 -69 -77
-134 -149 -145 -161 -11 -11 -47 -50 -79 -85 -315 -342 -768 -806 -1016 -1039
-30 -29 -87 -82 -125 -118 -69 -65 -228 -211 -330 -302 -27 -25 -52 -47 -55
-50 -3 -3 -54 -48 -115 -99 -156 -134 -157 -135 -75 -92 353 183 834 498 1480
970 80 58 150 109 155 114 6 4 69 51 140 105 265 198 646 493 1001 774 223
176 775 622 798 643 6 6 34 29 61 51 66 52 337 276 670 554 149 124 281 235
294 245 12 11 36 31 51 45 15 14 39 34 51 44 33 27 143 120 149 126 3 3 30 25
60 50 30 25 60 49 66 55 17 15 107 93 234 201 63 54 120 102 126 108 6 6 35
31 64 56 30 25 72 61 94 80 48 42 104 91 120 105 6 6 61 53 121 105 61 52 112
97 115 100 56 57 44 29 -31 -75 -51 -71 -97 -134 -102 -140 -18 -23 -648 -908
-738 -1038 -30 -43 -95 -137 -146 -210 -114 -163 -223 -322 -243 -353 -8 -13
-58 -88 -111 -166 -531 -788 -1020 -1592 -1347 -2218 -30 -58 -61 -116 -69
-130 -17 -29 35 25 187 196 63 71 142 157 239 263 53 57 109 118 125 135 333
363 1071 1107 1341 1351 33 30 219 201 245 225 9 8 56 51 105 95 49 44 107 96
129 115 21 19 44 40 50 45 17 15 157 137 190 165 16 14 39 34 51 45 13 11 44
38 71 60 27 22 69 58 95 80 25 22 65 56 89 74 23 19 48 40 54 46 33 31 442
360 671 540 105 82 240 188 300 235 61 48 160 125 220 171 61 47 119 92 130
101 11 9 112 89 225 179 180 143 446 363 543 447 267 236 312 278 537 502 211
211 272 276 419 445 141 162 230 269 328 395 6 8 31 40 55 70 147 185 538 737
573 810 5 11 13 20 17 20 5 0 8 4 8 10 0 5 28 54 63 107 107 165 287 462 397
653 100 175 210 437 226 541 4 22 8 39 9 39 4 0 402 -403 594 -600 127 -130
121 -128 230 -78 36 16 158 68 271 115 203 84 326 136 365 153 11 5 117 52
235 104 118 51 256 113 305 136 50 23 164 76 255 118 91 42 316 152 500 244
l335 166 50 -22 c157 -71 205 -207 164 -461 -12 -72 -77 -289 -109 -360 -9
-22 -30 -69 -46 -105 -121 -278 -400 -744 -692 -1155 -94 -131 -372 -507 -381
-515 -3 -3 -19 -23 -36 -45 -83 -113 -659 -821 -695 -855 -3 -3 -30 -34 -60
-70 -97 -114 -310 -359 -379 -435 -38 -41 -98 -108 -216 -239 -78 -87 -117
-129 -210 -230 -60 -65 -123 -133 -139 -150 -15 -17 -64 -68 -108 -114 -48
-50 -78 -89 -74 -97 5 -14 163 -212 175 -219 12 -8 698 437 1041 674 154 107
398 278 455 320 473 348 475 350 735 554 835 657 1535 1340 1996 1951 409 542
660 1048 760 1530 37 180 49 484 24 640 -31 203 -94 388 -182 533 -21 34 -38
66 -38 70 1 4 58 45 128 92 318 214 752 534 1118 826 162 129 531 437 599 500
11 11 56 50 100 89 126 110 295 267 469 435 243 235 480 477 653 666 45 49
100 109 123 134 202 220 612 717 821 995 304 405 637 899 859 1275 76 127 112
191 192 335 146 262 162 292 278 524 119 237 179 364 261 546 50 113 94 193
150 276 14 20 42 98 63 175 21 76 72 231 113 344 213 581 362 1078 502 1675
47 203 133 652 165 868 31 206 35 232 42 292 3 33 8 68 10 79 2 10 6 44 9 75
3 31 8 70 10 86 2 17 6 62 10 100 3 39 8 84 10 100 2 17 7 73 10 125 3 52 8
109 10 125 19 144 27 918 12 1115 -5 58 -8 117 -8 133 1 19 -4 27 -16 28 -47
2 -77 9 -93 24 -24 22 -93 28 -445 41 -87 3 -162 7 -166 9 -3 3 -8 3 -10 1z"/>
</g>
</svg>
